<?xml version="1.0" encoding="utf-8"?>
<!-- Generator: Adobe Illustrator 21.1.0, SVG Export Plug-In . SVG Version: 6.00 Build 0)  -->
<svg version="1.1" id="Lag_1" xmlns="http://www.w3.org/2000/svg" xmlns:xlink="http://www.w3.org/1999/xlink" x="0px" y="0px"
	 viewBox="0 0 228 70" style="enable-background:new 0 0 228 70;" xml:space="preserve">
<style type="text/css">
	.st0{fill:#9B9B9B;}
	.st1{fill:#FFFFFF;}
	.st2{fill:none;}
	.st3{fill:#DD1919;}
	.st4{font-family:'Candara';}
	.st5{font-size:36.5544px;}
	.st6{fill:#FF0000;}
</style>
<g>
	<path class="st0" d="M63.1,36c-0.6,3.8,0.3,9.1-1.9,10.9c-5,4.3-11.4,9.5-17.3,9.5c-5.8,0-12.8-4.8-17.1-9.6
		c-2.6-2.9-1.3-9.6-1.4-14.6c-0.1-2.6-0.3-6.5,1.2-7.6c5.4-3.9,11.5-9.4,17.3-9.4c5.8,0,12.3,5.2,17.2,9.5
		C63.4,26.7,62.6,32.1,63.1,36z M54,35.8c-5.7-3.2-10.1-5.7-15.2-8.6c0,6.3,0,11.3,0,17.4C44,41.6,48.4,39,54,35.8z"/>
	<path d="M87.6,45.3"/>
	<path class="st0" d="M28.2,66.2c-0.8-2.5-1.6-5.1-2.7-8.7c3.3-0.4,6.1-0.7,9-1c-0.1,1.3-0.2,2.6-0.3,4.1c0.2,0.1,0.6,0.4,1,0.8
		c5.9,5.3,11.7,5.1,17.7,0.1c2.3-2,5.3-3.2,8-4.7c5.5-3,12.3-5.1,9.4-14.1c4.6,2.1,5.2,9.4,1.5,11.6C63.3,59.4,55,64.6,46.1,68.7
		c-2.4,1.1-6.6-1.9-10.1-2.9c-2-0.6-4.2-0.7-6.3-1.1C29.2,65.2,28.7,65.7,28.2,66.2z"/>
	<path class="st0" d="M36.1,6.5c5.2-5.4,9.4-5.1,14.4-1.7c5.8,4,12.1,7.5,18.4,10.6c4,2,5.4,4.7,5.2,9c-0.1,2.3,1.3,4.7,2.1,7.1
		c0.7,0.1,1.4,0.1,2.1,0.2c-1.8,2.1-3.6,4.1-5.8,6.7c-2.2-2.4-4.1-4.5-6-6.6c5.8-3.8,5.6-10.6,0.1-13.8c-6-3.5-12-6.9-17.9-10.4
		C46,6.1,43.5,4.3,40.3,7C39.7,7.5,38.1,6.8,36.1,6.5z"/>
	<path class="st0" d="M31,17.5c-6.4-3.5-13.5,0.8-13.6,7.6c0,6.7-0.3,13.5,0.1,20.1c0.2,3.1,1.7,6.2,3,10.3c0.6-0.3-0.8,0.8-1.2,0.5
		c-1.9-1.4-4.9-3.2-5-4.9c-0.5-10.1-0.7-20.4,0.1-30.5c0.2-2.3,4.4-4.5,7.1-6.4c2.1-1.6,5.6-2.2,1.4-7.2c4.5,0.8,7.2,1.3,10.6,2
		C32.6,12.1,31.8,14.8,31,17.5z"/>
	<path class="st1" d="M54,35.8c-5.6,3.2-10,5.8-15.2,8.8c0-6.1,0-11.1,0-17.4C43.9,30,48.4,32.5,54,35.8z"/>
</g>
<rect x="80.2" y="20.4" class="st2" width="324.7" height="86.4"/>
<text transform="matrix(1 0 0 1 80.1816 45.6081)" class="st3 st4 st5">venobo</text>
<rect x="36.7" y="26.6" class="st0" width="19.4" height="19.4"/>
<path class="st6" d="M37.2,44.4l0-3.2l11-3.9c0,0,2.9-1.2,4.8-1.4l0-0.1c0,0-1.1-0.1-2.4-0.5l-13.5-4.9l0-3.1l18.3,7.3l0,2.9
	L37.2,44.4z"/>
</svg>
